<?xml version="1.0" standalone="no"?><!DOCTYPE svg PUBLIC "-//W3C//DTD SVG 1.1//EN" "http://www.w3.org/Graphics/SVG/1.1/DTD/svg11.dtd"><svg t="1592140990730" class="icon" viewBox="0 0 1076 1024" version="1.1" xmlns="http://www.w3.org/2000/svg" p-id="1186" width="50.4375" height="48" xmlns:xlink="http://www.w3.org/1999/xlink"><defs><style type="text/css"></style></defs><path d="M1003.473877 320.11918a12.506973 12.506973 0 0 1 12.216113 12.652403V948.376441a12.797833 12.797833 0 0 1-12.216113 12.652403H72.722379a12.652403 12.652403 0 0 1-12.216113-12.652403V332.044433A12.652403 12.652403 0 0 1 72.722379 320.11918h930.751498m26.759105-63.116586H59.633686C19.495028 256.275444 0.007418 277.653643 0.007418 320.11918v628.111831a74.75098 74.75098 0 0 0 72.714961 75.768989h930.751498a74.75098 74.75098 0 0 0 72.71496-75.768989V320.11918c0-41.738387-19.487609-63.116586-59.626267-63.116586z" fill="#444444" p-id="1187"></path><path d="M301.774505 554.261353v83.913065h-67.770343V554.261353h-83.913065v-67.770343h83.913065v-84.058495h67.770343v84.058495h84.058495v67.770343h-84.058495zM1012.926822 318.664881L885.53021 59.50876H191.684055L64.142014 318.664881l-61.080567-23.850508 129.43263-262.937298A46.973865 46.973865 0 0 1 180.485951 0.173352h716.096933A47.264724 47.264724 0 0 1 945.301908 31.877075l129.2872 262.937298z" fill="#444444" p-id="1188"></path><path d="M571.9833 291.033196H42.036666L164.05237 10.644307h407.93093z m0 342.051175h350.9224v66.606904H571.9833zM416.664143 789.566967h512.931334v66.752333H416.664143z" fill="#444444" p-id="1189"></path></svg>